<svg width="21" height="20" viewBox="0 0 21 20" fill="none" xmlns="http://www.w3.org/2000/svg">
<g id="Phosphor Icons Regular / CloudRain">
<path id="Vector (Stroke)" fill-rule="evenodd" clip-rule="evenodd" d="M12.8981 15.1028C13.1865 15.2924 13.2666 15.68 13.0769 15.9684L11.0222 19.0934C10.8326 19.3818 10.4451 19.4619 10.1566 19.2722C9.86822 19.0826 9.78814 18.6951 9.97778 18.4066L12.0325 15.2816C12.2221 14.9932 12.6096 14.9131 12.8981 15.1028Z" fill="white"/>
<path id="Vector (Stroke)_2" fill-rule="evenodd" clip-rule="evenodd" d="M11.0234 11.978C11.3117 12.1678 11.3915 12.5554 11.2017 12.8437L8.73296 16.5937C8.54316 16.882 8.15557 16.9618 7.86726 16.772C7.57895 16.5822 7.4991 16.1946 7.6889 15.9063L10.1577 12.1563C10.3475 11.868 10.735 11.7882 11.0234 11.978Z" fill="white"/>
<path id="Vector (Stroke)_3" fill-rule="evenodd" clip-rule="evenodd" d="M13.602 2.59007C12.6927 2.4092 11.7502 2.50203 10.8937 2.85682C10.0371 3.2116 9.30506 3.81241 8.78999 4.58327C8.27492 5.35412 8 6.2604 8 7.1875C8 7.53268 7.72018 7.8125 7.375 7.8125C7.02982 7.8125 6.75 7.53268 6.75 7.1875C6.75 6.88064 6.77378 6.57559 6.82055 6.27492C6.6949 6.2577 6.56798 6.24934 6.44071 6.24999L6.4375 6.25C5.69158 6.25 4.97621 6.54632 4.44876 7.07376C3.92132 7.60121 3.625 8.31658 3.625 9.0625C3.625 9.80842 3.92132 10.5238 4.44876 11.0512C4.97621 11.5787 5.69158 11.875 6.4375 11.875H12.6875C13.6146 11.875 14.5209 11.6001 15.2917 11.085C16.0626 10.5699 16.6634 9.83786 17.0182 8.98133C17.373 8.1248 17.4658 7.1823 17.2849 6.27302C17.1041 5.36373 16.6576 4.5285 16.0021 3.87294C15.3465 3.21738 14.5113 2.77094 13.602 2.59007ZM7.14399 5.06066C7.30124 4.65079 7.50425 4.25756 7.75065 3.8888C8.40307 2.91239 9.33038 2.15136 10.4153 1.70197C11.5003 1.25257 12.6941 1.13499 13.8458 1.36409C14.9976 1.59319 16.0556 2.15868 16.8859 2.98906C17.7163 3.81943 18.2818 4.87739 18.5109 6.02915C18.74 7.18092 18.6224 8.37475 18.173 9.45969C17.7236 10.5446 16.9626 11.4719 15.9862 12.1244C15.0098 12.7768 13.8618 13.125 12.6875 13.125H6.4375C5.36006 13.125 4.32675 12.697 3.56488 11.9351C2.80301 11.1733 2.375 10.1399 2.375 9.0625C2.375 7.98506 2.80301 6.95175 3.56488 6.18988C4.32637 5.42839 5.35904 5.00042 6.43591 5" fill="white"/>
</g>
</svg>
