<svg width="21" height="20" viewBox="0 0 21 20" fill="none" xmlns="http://www.w3.org/2000/svg">
<g id="Phosphor Icons Regular / Drop">
<path id="Vector (Stroke)" fill-rule="evenodd" clip-rule="evenodd" d="M10.8584 0.73798L10.5 1.25L10.1416 0.73798C10.3568 0.58734 10.6432 0.58734 10.8584 0.73798ZM10.5 2.03125C10.3476 2.15009 10.1531 2.30658 9.92822 2.4977C9.35969 2.98095 8.60236 3.68165 7.84663 4.55074C6.3199 6.30647 4.875 8.66253 4.875 11.25C4.875 12.7418 5.46763 14.1726 6.52252 15.2275C7.57742 16.2824 9.00816 16.875 10.5 16.875C11.9918 16.875 13.4226 16.2824 14.4775 15.2275C15.5324 14.1726 16.125 12.7418 16.125 11.25C16.125 8.66253 14.6801 6.30647 13.1534 4.55074C12.3976 3.68165 11.6403 2.98095 11.0718 2.4977C10.8469 2.30658 10.6523 2.15009 10.5 2.03125ZM10.1412 0.738242C10.1414 0.738103 10.1416 0.73798 10.5 1.25C10.8584 0.73798 10.8586 0.738103 10.8588 0.738242L10.8593 0.738605L10.8608 0.739632L10.8654 0.742891L10.8813 0.754194C10.8948 0.763844 10.9141 0.777712 10.9387 0.795702C10.988 0.831678 11.0588 0.884165 11.1481 0.9524C11.3266 1.08883 11.5792 1.28848 11.8813 1.54527C12.4847 2.05812 13.2899 2.80273 14.0966 3.73051C15.6949 5.56853 17.375 8.21247 17.375 11.25C17.375 13.0734 16.6507 14.822 15.3614 16.1114C14.072 17.4007 12.3234 18.125 10.5 18.125C8.67664 18.125 6.92795 17.4007 5.63864 16.1114C4.34933 14.822 3.625 13.0734 3.625 11.25C3.625 8.21247 5.3051 5.56853 6.90337 3.73051C7.71014 2.80273 8.51531 2.05812 9.11866 1.54527C9.42077 1.28848 9.67342 1.08883 9.85192 0.9524C9.9412 0.884165 10.012 0.831678 10.0613 0.795702C10.0859 0.777712 10.1052 0.763844 10.1187 0.754194L10.1346 0.742891L10.1392 0.739632L10.1407 0.738605L10.1412 0.738242Z" fill="white"/>
<path id="Vector (Stroke)_2" fill-rule="evenodd" clip-rule="evenodd" d="M14.3014 11.2669C14.6415 11.3254 14.8698 11.6487 14.8113 11.9889C14.6579 12.8799 14.2317 13.7014 13.5915 14.34C12.9513 14.9785 12.1287 15.4026 11.2373 15.5537C10.897 15.6114 10.5743 15.3823 10.5166 15.042C10.4589 14.7016 10.688 14.379 11.0284 14.3213C11.6647 14.2134 12.2518 13.9107 12.7087 13.455C13.1657 12.9992 13.4699 12.4128 13.5794 11.7768C13.6379 11.4366 13.9612 11.2083 14.3014 11.2669Z" fill="white"/>
</g>
</svg>
