<svg width="43" height="42" viewBox="0 0 43 42" fill="none" xmlns="http://www.w3.org/2000/svg">
<g id="ic_cloudy" clip-path="url(#clip0_128_592)">
<g id="2" filter="url(#filter0_f_128_592)">
<rect x="10.243" y="25.4936" width="22.26" height="3.14999" rx="1.575" fill="#00BCFF"/>
</g>
<g id="clouds" filter="url(#filter1_bi_128_592)">
<path d="M37.1731 21.2711C37.278 20.7385 37.3328 20.1906 37.3328 19.6314C37.3328 14.4001 32.5439 10.1592 26.6366 10.1592C22.245 10.1592 18.4715 12.503 16.8242 15.8551C15.4897 14.8348 13.758 14.2187 11.8657 14.2187C7.64613 14.2187 4.22552 17.2816 4.22552 21.0598C4.22552 21.2702 4.23613 21.4784 4.25689 21.6839C2.22737 22.5642 0.829906 24.4114 0.829906 26.5477C0.829906 29.5371 3.56639 31.9604 6.94201 31.9604H35.8047C39.1804 31.9604 41.9168 29.5371 41.9168 26.5477C41.9168 23.9749 39.8899 21.8214 37.1731 21.2711Z" fill="url(#paint0_linear_128_592)"/>
</g>
</g>
<defs>
<filter id="filter0_f_128_592" x="-7.54365" y="7.70695" width="57.8333" height="38.7232" filterUnits="userSpaceOnUse" color-interpolation-filters="sRGB">
<feFlood flood-opacity="0" result="BackgroundImageFix"/>
<feBlend mode="normal" in="SourceGraphic" in2="BackgroundImageFix" result="shape"/>
<feGaussianBlur stdDeviation="8.89332" result="effect1_foregroundBlur_128_592"/>
</filter>
<filter id="filter1_bi_128_592" x="-7.17009" y="2.15918" width="57.0869" height="37.8012" filterUnits="userSpaceOnUse" color-interpolation-filters="sRGB">
<feFlood flood-opacity="0" result="BackgroundImageFix"/>
<feGaussianBlur in="BackgroundImageFix" stdDeviation="4"/>
<feComposite in2="SourceAlpha" operator="in" result="effect1_backgroundBlur_128_592"/>
<feBlend mode="normal" in="SourceGraphic" in2="effect1_backgroundBlur_128_592" result="shape"/>
<feColorMatrix in="SourceAlpha" type="matrix" values="0 0 0 0 0 0 0 0 0 0 0 0 0 0 0 0 0 0 127 0" result="hardAlpha"/>
<feOffset dy="8.77678"/>
<feGaussianBlur stdDeviation="3.98945"/>
<feComposite in2="hardAlpha" operator="arithmetic" k2="-1" k3="1"/>
<feColorMatrix type="matrix" values="0 0 0 0 1 0 0 0 0 1 0 0 0 0 1 0 0 0 1 0"/>
<feBlend mode="normal" in2="shape" result="effect2_innerShadow_128_592"/>
</filter>
<linearGradient id="paint0_linear_128_592" x1="0.829899" y1="31.9886" x2="44.3884" y2="6.09942" gradientUnits="userSpaceOnUse">
<stop stop-color="#E2FFFF"/>
<stop offset="1" stop-color="white"/>
</linearGradient>
<clipPath id="clip0_128_592">
<rect width="42" height="41.9999" fill="white" transform="translate(0.373276 -0.126465)"/>
</clipPath>
</defs>
</svg>
