<svg width="42" height="42" viewBox="0 0 42 42" fill="none" xmlns="http://www.w3.org/2000/svg">
<g id="ic_heavysnow" clip-path="url(#clip0_128_886)">
<g id="Group 9220">
<g id="3" filter="url(#filter0_f_128_886)">
<rect x="9.98456" y="25.2" width="22.26" height="3.14999" rx="1.575" fill="#00BCFF"/>
</g>
<g id="clouds" filter="url(#filter1_bi_128_886)">
<path d="M35.0656 15.3157C35.1665 14.7427 35.2192 14.1532 35.2192 13.5515C35.2192 7.92292 30.6138 3.36005 24.9327 3.36005C20.7093 3.36005 17.0804 5.88179 15.4962 9.48844C14.2128 8.39063 12.5475 7.72781 10.7276 7.72781C6.66971 7.72781 3.38013 11.0232 3.38013 15.0883C3.38013 15.3147 3.39033 15.5386 3.4103 15.7598C1.45852 16.707 0.114589 18.6944 0.114589 20.9929C0.114589 24.2092 2.74625 26.8166 5.99257 26.8166H33.7497C36.996 26.8166 39.6277 24.2092 39.6277 20.9929C39.6277 18.2248 37.6784 15.9077 35.0656 15.3157Z" fill="url(#paint0_linear_128_886)"/>
</g>
<path id="Vector" d="M33.1622 19.1726V17.0698L32.049 17.7303L31.5043 17.3874V16.6483L33.1622 15.6582V14.2762L31.8358 15.0889V13.6247L30.5095 14.319V16.3051L29.9614 16.713L29.5148 16.3446V15.0143L27.6666 16.0495L26.8622 15.7183V14.8797L28.7472 13.8286L27.5253 13.2245V12.4552L28.2293 12.0815L29.9581 13.0988L31.1558 12.4078L31.1286 12.3862L29.9133 11.6823L31.0964 10.9435L29.9104 10.2529L28.1818 11.2648L27.5253 10.9435V10.1786L28.6998 9.52272L26.8622 8.51041V7.67185L27.6317 7.30247L29.5148 8.36253V7.01102L30.0072 6.63733L30.6514 7.02859L30.6329 9.05287L31.8508 9.75648L31.8617 8.32705L33.1622 9.02303V7.64135L31.5043 6.65059V5.91648L32.049 5.56832L33.1622 6.22882V4.1306L33.8233 3.69159L34.4885 4.1306V6.22882L35.7836 5.55539L36.4779 5.95958V6.62009L34.4885 7.64135V9.02303L35.8148 8.27135V9.77472L37.1411 9.08371V6.9205L37.6235 6.63335L38.1358 6.92016V8.30185L40.0729 7.28059L40.7885 7.68445V8.46664L38.9664 9.51775L40.1253 10.1657V10.913L39.5185 11.2433L37.7522 10.1962L36.5323 10.974L37.7091 11.7128L36.4958 12.4164L37.7466 13.0769L39.5334 12.0868L40.1253 12.49V13.2029L39.0245 13.8286L40.7885 14.8797V15.7053L39.9522 16.0492L38.1358 15.0584V16.3698L37.6318 16.7176L37.1411 16.3698V14.3797L35.8148 13.6459V15.0279L34.4885 14.2759V15.6579L36.1464 16.648V17.4302L35.6003 17.7299L34.4885 17.0701V19.173L33.8233 19.6073L33.1622 19.1726ZM32.6761 11.68L33.3014 12.6442H34.4666L35.0014 11.68L34.4364 10.6547H33.2712L32.6761 11.68Z" fill="#9FE8FF"/>
<path id="Vector_2" d="M9.71387 33.512V32.846L9.36139 33.0552L9.18887 32.9466V32.7126L9.71387 32.3991V31.9614L9.29387 32.2188V31.7551L8.87387 31.975V32.6039L8.70031 32.7331L8.55887 32.6164V32.1952L7.9736 32.523L7.71887 32.4181V32.1525L8.3158 31.8197L7.92887 31.6284V31.3848L8.15179 31.2664L8.69926 31.5886L9.07852 31.3697L9.06991 31.3629L8.68508 31.14L9.05972 30.9061L8.68414 30.6874L8.13677 31.0078L7.92887 30.9061V30.6638L8.30078 30.4561L7.71887 30.1356V29.87L7.96258 29.7531L8.55887 30.0888V29.6608L8.7148 29.5424L8.91881 29.6663L8.91293 30.3074L9.2986 30.5302L9.30206 30.0775L9.71387 30.2979V29.8604L9.18887 29.5466V29.3142L9.36139 29.2039L9.71387 29.4131V28.7486L9.92324 28.6096L10.1339 28.7486V29.4131L10.544 29.1998L10.7639 29.3278V29.537L10.1339 29.8604V30.2979L10.5539 30.0599V30.5359L10.9739 30.3171V29.6321L11.1266 29.5412L11.2889 29.632V30.0695L11.9023 29.7461L12.1289 29.874V30.1217L11.5519 30.4546L11.9189 30.6597V30.8964L11.7267 31.001L11.1674 30.6694L10.7811 30.9157L11.1537 31.1497L10.7695 31.3725L11.1656 31.5816L11.7314 31.2681L11.9189 31.3958V31.6215L11.5703 31.8197L12.1289 32.1525V32.414L11.8641 32.5229L11.2889 32.2091V32.6244L11.1293 32.7345L10.9739 32.6244V31.9942L10.5539 31.7618V32.1995L10.1339 31.9613V32.399L10.6589 32.7125V32.9602L10.4859 33.0551L10.1339 32.8461V33.5121L9.92324 33.6496L9.71387 33.512ZM9.55994 31.1393L9.75797 31.4446H10.1269L10.2963 31.1393L10.1174 30.8146H9.74842L9.55994 31.1393Z" fill="#9FE8FF"/>
<path id="Vector_3" d="M19.4235 38.0944V37.113L18.904 37.4213L18.6498 37.2613V36.9164L19.4235 36.4543V35.8094L18.8045 36.1886V35.5053L18.1856 35.8293V36.7562L17.9298 36.9465L17.7214 36.7746V36.1538L16.8589 36.6369L16.4835 36.4823V36.091L17.3631 35.6005L16.7929 35.3185V34.9596L17.1214 34.7852L17.9282 35.2599L18.4871 34.9374L18.4745 34.9274L17.9073 34.5989L18.4594 34.2541L17.906 33.9318L17.0993 34.4041L16.7929 34.2541V33.8971L17.341 33.5911L16.4835 33.1187V32.7273L16.8426 32.555L17.7214 33.0496V32.4189L17.9511 32.2446L18.2518 32.4271L18.2431 33.3718L18.8115 33.7002L18.8166 33.0331L19.4235 33.3579V32.7131L18.6498 32.2507V31.9082L18.904 31.7457L19.4235 32.0539V31.0747L19.732 30.8699L20.0424 31.0747V32.0539L20.6468 31.7396L20.9708 31.9283V32.2365L20.0424 32.7131V33.3579L20.6614 33.0071V33.7087L21.2803 33.3862V32.3767L21.5054 32.2427L21.7445 32.3765V33.0213L22.6485 32.5447L22.9824 32.7332V33.0982L22.1321 33.5887L22.6729 33.8911V34.2399L22.3898 34.394L21.5655 33.9053L20.9962 34.2683L21.5454 34.6131L20.9792 34.9415L21.5629 35.2497L22.3967 34.7876L22.6729 34.9758V35.3085L22.1592 35.6005L22.9824 36.091V36.4763L22.5922 36.6367L21.7445 36.1744V36.7864L21.5093 36.9487L21.2803 36.7864V35.8576L20.6614 35.5152V36.1602L20.0424 35.8092V36.4542L20.8161 36.9162V37.2812L20.5612 37.4211L20.0424 37.1132V38.0945L19.732 38.2972L19.4235 38.0944ZM19.1966 34.5978L19.4884 35.0478H20.0322L20.2818 34.5978L20.0181 34.1193H19.4744L19.1966 34.5978Z" fill="#9FE8FF"/>
<path id="Vector_4" d="M29.3543 32.9849V32.3891L29.0389 32.5762L28.8846 32.4791V32.2697L29.3543 31.9891V31.5976L28.9785 31.8278V31.4129L28.6027 31.6097V32.1724L28.4474 32.288L28.3209 32.1836V31.8067L27.7972 32.1L27.5693 32.0061V31.7685L28.1034 31.4707L27.7572 31.2996V31.0816L27.9567 30.9757L28.4465 31.2639L28.7858 31.0682L28.7781 31.0621L28.4338 30.8626L28.769 30.6533L28.433 30.4576L27.9432 30.7443L27.7572 30.6533V30.4366L28.09 30.2507L27.5693 29.9639V29.7263L27.7874 29.6217L28.3209 29.922V29.5391L28.4604 29.4332L28.6429 29.5441L28.6377 30.1176L28.9827 30.317L28.9858 29.912L29.3543 30.1091V29.7177L28.8846 29.437V29.229L29.0389 29.1303L29.3543 29.3175V28.723L29.5416 28.5986L29.7301 28.723V29.3175L30.0971 29.1266L30.2938 29.2412V29.4283L29.7301 29.7177V30.1091L30.1059 29.8962V30.3221L30.4817 30.1263V29.5134L30.6184 29.4321L30.7635 29.5133V29.9048L31.3124 29.6155L31.5151 29.7299V29.9515L30.9989 30.2493L31.3272 30.4329V30.6446L31.1553 30.7382L30.6548 30.4415L30.3092 30.6619L30.6426 30.8712L30.2989 31.0706L30.6532 31.2577L31.1595 30.9772L31.3272 31.0915V31.2934L31.0153 31.4707L31.5151 31.7685V32.0025L31.2782 32.0999L30.7635 31.8192V32.1907L30.6207 32.2893L30.4817 32.1907V31.6269L30.1059 31.419V31.8105L29.7301 31.5975V31.989L30.1998 32.2696V32.4912L30.0451 32.5761L29.7301 32.3892V32.985L29.5416 33.108L29.3543 32.9849ZM29.2166 30.8619L29.3938 31.1351H29.7239L29.8754 30.8619L29.7153 30.5715H29.3852L29.2166 30.8619Z" fill="#9FE8FF"/>
</g>
</g>
<defs>
<filter id="filter0_f_128_886" x="-7.80208" y="7.41331" width="57.8333" height="38.7232" filterUnits="userSpaceOnUse" color-interpolation-filters="sRGB">
<feFlood flood-opacity="0" result="BackgroundImageFix"/>
<feBlend mode="normal" in="SourceGraphic" in2="BackgroundImageFix" result="shape"/>
<feGaussianBlur stdDeviation="8.89332" result="effect1_foregroundBlur_128_886"/>
</filter>
<filter id="filter1_bi_128_886" x="-7.88541" y="-4.63995" width="55.5131" height="39.4565" filterUnits="userSpaceOnUse" color-interpolation-filters="sRGB">
<feFlood flood-opacity="0" result="BackgroundImageFix"/>
<feGaussianBlur in="BackgroundImageFix" stdDeviation="4"/>
<feComposite in2="SourceAlpha" operator="in" result="effect1_backgroundBlur_128_886"/>
<feBlend mode="normal" in="SourceGraphic" in2="effect1_backgroundBlur_128_886" result="shape"/>
<feColorMatrix in="SourceAlpha" type="matrix" values="0 0 0 0 0 0 0 0 0 0 0 0 0 0 0 0 0 0 127 0" result="hardAlpha"/>
<feOffset dy="4.60759"/>
<feGaussianBlur stdDeviation="2.09436"/>
<feComposite in2="hardAlpha" operator="arithmetic" k2="-1" k3="1"/>
<feColorMatrix type="matrix" values="0 0 0 0 1 0 0 0 0 1 0 0 0 0 1 0 0 0 1 0"/>
<feBlend mode="normal" in2="shape" result="effect2_innerShadow_128_886"/>
</filter>
<linearGradient id="paint0_linear_128_886" x1="2.62779" y1="24.7222" x2="42.4899" y2="-5.0871" gradientUnits="userSpaceOnUse">
<stop stop-color="white"/>
<stop offset="1" stop-color="white" stop-opacity="0.58"/>
</linearGradient>
<clipPath id="clip0_128_886">
<rect width="42" height="41.9999" fill="white" transform="translate(0.114563)"/>
</clipPath>
</defs>
</svg>
