<svg width="25" height="24" viewBox="0 0 25 24" fill="none" xmlns="http://www.w3.org/2000/svg">
<g id="ic_heavysnow" clip-path="url(#clip0_124_253)">
<g id="Group 9220">
<g id="3" filter="url(#filter0_f_124_253)">
<rect x="6.20544" y="14.4" width="12.72" height="1.8" rx="0.899998" fill="#00BCFF"/>
</g>
<g id="clouds" filter="url(#filter1_bi_124_253)">
<path d="M20.5375 8.75184C20.5951 8.42439 20.6252 8.08754 20.6252 7.74373C20.6252 4.5274 17.9936 1.92004 14.7472 1.92004C12.3339 1.92004 10.2602 3.36104 9.35496 5.42198C8.6216 4.79466 7.66997 4.41591 6.63003 4.41591C4.31124 4.41591 2.43148 6.299 2.43148 8.62191C2.43148 8.75126 2.43731 8.87924 2.44872 9.00562C1.33342 9.54686 0.565454 10.6826 0.565454 11.9959C0.565454 13.8339 2.06926 15.3238 3.9243 15.3238H19.7855C21.6405 15.3238 23.1443 13.8339 23.1443 11.9959C23.1443 10.4142 22.0305 9.09015 20.5375 8.75184Z" fill="url(#paint0_linear_124_253)"/>
</g>
<path id="Vector" d="M19.4498 10.9558V9.75417L18.8137 10.1316L18.5024 9.93569V9.51335L19.4498 8.94758V8.15786L18.6919 8.62226V7.78554L17.934 8.1823V9.31725L17.6208 9.5503L17.3656 9.33979V8.57963L16.3095 9.17116L15.8498 8.98188V8.5027L16.927 7.90207L16.2287 7.55685V7.11727L16.631 6.90374L17.6189 7.48504L18.3033 7.09018L18.2878 7.07786L17.5933 6.67561L18.2694 6.25346L17.5916 5.85879L16.6039 6.43706L16.2287 6.25346V5.81635L16.8999 5.44157L15.8498 4.86311V4.38393L16.2896 4.17286L17.3656 4.77861V4.00631L17.647 3.79278L18.0151 4.01636L18.0045 5.17309L18.7004 5.57515L18.7067 4.75833L19.4498 5.15604V4.3665L18.5024 3.80036V3.38086L18.8137 3.18192L19.4498 3.55935V2.36036L19.8276 2.1095L20.2077 2.36036V3.55935L20.9478 3.17453L21.3445 3.40549V3.78292L20.2077 4.3665V5.15604L20.9656 4.7265V5.58557L21.7235 5.19071V3.95459L21.9992 3.7905L22.2919 3.9544V4.74393L23.3988 4.16035L23.8077 4.39113V4.8381L22.7665 5.43873L23.4287 5.80896V6.23603L23.082 6.42475L22.0727 5.82639L21.3756 6.2709L22.048 6.69304L21.3548 7.0951L22.0695 7.47254L23.0905 6.90677L23.4287 7.13717V7.54453L22.7997 7.90207L23.8077 8.5027V8.97449L23.3298 9.17097L22.2919 8.60483V9.35419L22.0039 9.55295L21.7235 9.35419V8.21698L20.9656 7.79767V8.5874L20.2077 8.15767V8.94739L21.1551 9.51316V9.96013L20.843 10.1314L20.2077 9.75436V10.956L19.8276 11.2042L19.4498 10.9558ZM19.172 6.67428L19.5294 7.22527H20.1952L20.5008 6.67428L20.1779 6.08843H19.5121L19.172 6.67428Z" fill="#9FE8FF"/>
<path id="Vector_2" d="M6.05077 19.1497V18.7692L5.84935 18.8887L5.75077 18.8267V18.6929L6.05077 18.5138V18.2637L5.81077 18.4108V18.1458L5.57077 18.2714V18.6308L5.47159 18.7046L5.39077 18.638V18.3973L5.05633 18.5846L4.91077 18.5246V18.3729L5.25187 18.1827L5.03077 18.0734V17.9342L5.15815 17.8666L5.47099 18.0506L5.68771 17.9256L5.68279 17.9217L5.46289 17.7943L5.67697 17.6606L5.46235 17.5357L5.14957 17.7188L5.03077 17.6606V17.5222L5.24329 17.4035L4.91077 17.2204V17.0686L5.05003 17.0018L5.39077 17.1936V16.949L5.47987 16.8814L5.59645 16.9522L5.59309 17.3185L5.81347 17.4458L5.81545 17.1872L6.05077 17.3131V17.0631L5.75077 16.8838V16.751L5.84935 16.688L6.05077 16.8075V16.4278L6.17041 16.3484L6.29077 16.4278V16.8075L6.52513 16.6856L6.65077 16.7588V16.8783L6.29077 17.0631V17.3131L6.53077 17.1771V17.4491L6.77077 17.3241V16.9327L6.85807 16.8807L6.95077 16.9326V17.1826L7.30129 16.9978L7.43077 17.0709V17.2124L7.10107 17.4026L7.31077 17.5199V17.6551L7.20097 17.7149L6.88135 17.5254L6.66061 17.6662L6.87355 17.7998L6.65401 17.9272L6.88033 18.0467L7.20367 17.8675L7.31077 17.9405V18.0695L7.11157 18.1827L7.43077 18.3729V18.5223L7.27945 18.5845L6.95077 18.4052V18.6425L6.85957 18.7055L6.77077 18.6425V18.2824L6.53077 18.1496V18.3997L6.29077 18.2636V18.5137L6.59077 18.6929V18.8344L6.49195 18.8887L6.29077 18.7693V19.1498L6.17041 19.2284L6.05077 19.1497ZM5.96281 17.7939L6.07597 17.9684H6.28681L6.38359 17.7939L6.28135 17.6084H6.07051L5.96281 17.7939Z" fill="#9FE8FF"/>
<path id="Vector_3" d="M11.5991 21.7682V21.2075L11.3023 21.3836L11.157 21.2922V21.0951L11.5991 20.8311V20.4625L11.2454 20.6792V20.2888L10.8917 20.4739V21.0036L10.7456 21.1123L10.6265 21.0141V20.6593L10.1336 20.9354L9.9191 20.8471V20.6234L10.4218 20.3432L10.0959 20.1821V19.9769L10.2837 19.8773L10.7447 20.1485L11.0641 19.9643L11.0568 19.9585L10.7327 19.7708L11.0482 19.5738L10.732 19.3896L10.271 19.6595L10.0959 19.5738V19.3698L10.4091 19.1949L9.9191 18.925V18.7014L10.1243 18.6029L10.6265 18.8855V18.5251L10.7578 18.4255L10.9296 18.5298L10.9246 19.0696L11.2494 19.2573L11.2523 18.8761L11.5991 19.0617V18.6932L11.157 18.429V18.2333L11.3023 18.1404L11.5991 18.3165V17.757L11.7754 17.64L11.9528 17.757V18.3165L12.2982 18.137L12.4833 18.2448V18.4209L11.9528 18.6932V19.0617L12.3065 18.8612V19.2621L12.6602 19.0779V18.501L12.7888 18.4244L12.9254 18.5009V18.8694L13.442 18.597L13.6328 18.7047V18.9133L13.1469 19.1936L13.4559 19.3664V19.5657L13.2941 19.6537L12.8231 19.3745L12.4978 19.5819L12.8116 19.7789L12.4881 19.9666L12.8216 20.1427L13.2981 19.8787L13.4559 19.9862V20.1763L13.1624 20.3432L13.6328 20.6234V20.8436L13.4098 20.9353L12.9254 20.6711V21.0208L12.791 21.1136L12.6602 21.0208V20.4901L12.3065 20.2944V20.663L11.9528 20.4624V20.831L12.3949 21.095V21.3036L12.2493 21.3835L11.9528 21.2076V21.7683L11.7754 21.8842L11.5991 21.7682ZM11.4695 19.7702L11.6362 20.0273H11.9469L12.0896 19.7702L11.9389 19.4968H11.6282L11.4695 19.7702Z" fill="#9FE8FF"/>
<path id="Vector_4" d="M17.2739 18.8485V18.508L17.0937 18.615L17.0055 18.5595V18.4398L17.2739 18.2795V18.0557L17.0591 18.1873V17.9503L16.8444 18.0627V18.3842L16.7557 18.4503L16.6833 18.3906V18.1752L16.3841 18.3428L16.2539 18.2892V18.1534L16.5591 17.9833L16.3612 17.8855V17.7609L16.4752 17.7004L16.7551 17.8651L16.949 17.7532L16.9446 17.7497L16.7479 17.6358L16.9394 17.5162L16.7474 17.4043L16.4675 17.5682L16.3612 17.5162V17.3923L16.5514 17.2861L16.2539 17.1222V16.9865L16.3785 16.9267L16.6833 17.0983V16.8795L16.7631 16.819L16.8674 16.8823L16.8644 17.2101L17.0616 17.324L17.0633 17.0925L17.2739 17.2052V16.9815L17.0055 16.8211V16.7023L17.0937 16.6459L17.2739 16.7528V16.4131L17.3809 16.342L17.4886 16.4131V16.7528L17.6983 16.6438L17.8107 16.7092V16.8162L17.4886 16.9815V17.2052L17.7033 17.0835V17.3269L17.9181 17.2151V16.8648L17.9962 16.8183L18.0791 16.8648V17.0885L18.3928 16.9231L18.5086 16.9885V17.1151L18.2136 17.2853L18.4012 17.3902V17.5112L18.303 17.5647L18.017 17.3952L17.8195 17.5211L18.01 17.6407L17.8136 17.7546L18.0161 17.8616L18.3054 17.7013L18.4012 17.7665V17.882L18.223 17.9833L18.5086 18.1534V18.2871L18.3732 18.3428L18.0791 18.1824V18.3947L17.9975 18.451L17.9181 18.3947V18.0725L17.7033 17.9537V18.1774L17.4886 18.0557V18.2794L17.757 18.4397V18.5664L17.6686 18.6149L17.4886 18.5081V18.8486L17.3809 18.9189L17.2739 18.8485ZM17.1952 17.6354L17.2964 17.7915H17.4851L17.5717 17.6354L17.4802 17.4694H17.2915L17.1952 17.6354Z" fill="#9FE8FF"/>
</g>
</g>
<defs>
<filter id="filter0_f_124_253" x="-11.5812" y="-3.38668" width="48.2933" height="37.3733" filterUnits="userSpaceOnUse" color-interpolation-filters="sRGB">
<feFlood flood-opacity="0" result="BackgroundImageFix"/>
<feBlend mode="normal" in="SourceGraphic" in2="BackgroundImageFix" result="shape"/>
<feGaussianBlur stdDeviation="8.89332" result="effect1_foregroundBlur_124_253"/>
</filter>
<filter id="filter1_bi_124_253" x="-7.43454" y="-6.07996" width="38.5789" height="29.4037" filterUnits="userSpaceOnUse" color-interpolation-filters="sRGB">
<feFlood flood-opacity="0" result="BackgroundImageFix"/>
<feGaussianBlur in="BackgroundImageFix" stdDeviation="4"/>
<feComposite in2="SourceAlpha" operator="in" result="effect1_backgroundBlur_124_253"/>
<feBlend mode="normal" in="SourceGraphic" in2="effect1_backgroundBlur_124_253" result="shape"/>
<feColorMatrix in="SourceAlpha" type="matrix" values="0 0 0 0 0 0 0 0 0 0 0 0 0 0 0 0 0 0 127 0" result="hardAlpha"/>
<feOffset dy="4.60759"/>
<feGaussianBlur stdDeviation="2.09436"/>
<feComposite in2="hardAlpha" operator="arithmetic" k2="-1" k3="1"/>
<feColorMatrix type="matrix" values="0 0 0 0 1 0 0 0 0 1 0 0 0 0 1 0 0 0 1 0"/>
<feBlend mode="normal" in2="shape" result="effect2_innerShadow_124_253"/>
</filter>
<linearGradient id="paint0_linear_124_253" x1="2.00157" y1="14.127" x2="24.7799" y2="-2.9069" gradientUnits="userSpaceOnUse">
<stop stop-color="white"/>
<stop offset="1" stop-color="white" stop-opacity="0.58"/>
</linearGradient>
<clipPath id="clip0_124_253">
<rect width="24" height="23.9999" fill="white" transform="translate(0.56546)"/>
</clipPath>
</defs>
</svg>
