<svg width="43" height="42" viewBox="0 0 43 42" fill="none" xmlns="http://www.w3.org/2000/svg">
<g id="ic_snowy" clip-path="url(#clip0_128_604)">
<g id="3">
<g id="2" filter="url(#filter0_f_128_604)">
<rect x="10.2433" y="24.0234" width="22.26" height="3.14999" rx="1.575" fill="#00BCFF"/>
</g>
<g id="clouds" filter="url(#filter1_bi_128_604)">
<path d="M37.1732 14.8864C37.2782 14.2905 37.3329 13.6776 37.3329 13.0519C37.3329 7.19915 32.544 2.45453 26.6367 2.45453C22.2451 2.45453 18.4716 5.07673 16.8243 8.82704C15.4898 7.6855 13.7581 6.99628 11.8658 6.99628C7.64623 6.99628 4.22562 10.423 4.22562 14.65C4.22562 14.8853 4.23623 15.1182 4.25699 15.3482C2.22747 16.3331 0.830007 18.3997 0.830007 20.7897C0.830007 24.1342 3.56649 26.8454 6.94211 26.8454H35.8049C39.1805 26.8454 41.917 24.1342 41.917 20.7897C41.917 17.9114 39.89 15.502 37.1732 14.8864Z" fill="url(#paint0_linear_128_604)"/>
</g>
<path id="Vector" d="M10.5768 34.2332V33.5253L10.2021 33.7477L10.0188 33.6323V33.3835L10.5768 33.0502V32.585L10.1304 32.8586V32.3657L9.68393 32.5994V33.268L9.49944 33.4052L9.34911 33.2812V32.8335L8.727 33.1819L8.45624 33.0704V32.7882L9.09073 32.4344L8.67945 32.231V31.9721L8.9164 31.8463L9.49833 32.1887L9.90146 31.9561L9.8923 31.9489L9.48326 31.7119L9.88148 31.4633L9.48225 31.2308L8.90044 31.5714L8.67945 31.4633V31.2058L9.07477 30.985L8.45624 30.6443V30.362L8.71528 30.2377L9.34911 30.5945V30.1396L9.51484 30.0138L9.7317 30.1455L9.72545 30.8269L10.1354 31.0637L10.1391 30.5826L10.5768 30.8168V30.3518L10.0188 30.0183V29.7712L10.2021 29.654L10.5768 29.8763V29.17L10.7993 29.0223L11.0232 29.17V29.8763L11.4592 29.6496L11.6929 29.7857V30.008L11.0232 30.3518V30.8168L11.4697 30.5638V31.0698L11.9161 30.8373V30.1091L12.0785 30.0125L12.2509 30.109V30.5741L12.9029 30.2303L13.1438 30.3663V30.6295L12.5305 30.9833L12.9206 31.2014V31.453L12.7163 31.5642L12.1218 31.2117L11.7112 31.4735L12.1073 31.7222L11.6989 31.959L12.1199 32.1813L12.7214 31.8481L12.9206 31.9838V32.2238L12.55 32.4344L13.1438 32.7882V33.0661L12.8623 33.1818L12.2509 32.8483V33.2897L12.0813 33.4068L11.9161 33.2897V32.6199L11.4697 32.3729V32.8381L11.0232 32.5849V33.0501L11.5813 33.3834V33.6467L11.3975 33.7475L11.0232 33.5254V34.2333L10.7993 34.3795L10.5768 34.2332ZM10.4132 31.7111L10.6237 32.0357H11.0159L11.1959 31.7111L11.0057 31.3661H10.6135L10.4132 31.7111Z" fill="#9FE8FF"/>
<path id="Vector_2" d="M20.8977 39.1041V38.061L20.3456 38.3886L20.0754 38.2186V37.852L20.8977 37.3608V36.6753L20.2398 37.0784V36.3521L19.5819 36.6965V37.6817L19.3101 37.884L19.0885 37.7013V37.0414L18.1717 37.5549L17.7727 37.3906V36.9747L18.7077 36.4533L18.1017 36.1536V35.772L18.4508 35.5866L19.3084 36.0913L19.9025 35.7485L19.889 35.7378L19.2862 35.3886L19.8731 35.0222L19.2847 34.6796L18.4273 35.1815L18.1017 35.0222V34.6427L18.6842 34.3174L17.7727 33.8152V33.3993L18.1545 33.2161L19.0885 33.7419V33.0715L19.3328 32.8861L19.6523 33.0802L19.6431 34.0843L20.2472 34.4333L20.2527 33.7243L20.8977 34.0695V33.3842L20.0754 32.8927V32.5286L20.3456 32.3559L20.8977 32.6835V31.6427L21.2257 31.4249L21.5556 31.6427V32.6835L22.1981 32.3494L22.5425 32.5499V32.8776L21.5556 33.3842V34.0695L22.2135 33.6967V34.4424L22.8715 34.0996V33.0266L23.1108 32.8842L23.3649 33.0264V33.7118L24.3257 33.2052L24.6807 33.4055V33.7935L23.7769 34.3149L24.3517 34.6363V35.007L24.0507 35.1709L23.1746 34.6514L22.5695 35.0373L23.1532 35.4037L22.5514 35.7528L23.1718 36.0804L24.0581 35.5893L24.3517 35.7893V36.1429L23.8057 36.4533L24.6807 36.9747V37.3842L24.2659 37.5548L23.3649 37.0633V37.7138L23.1149 37.8863L22.8715 37.7138V36.7266L22.2135 36.3626V37.0482L21.5556 36.6751V37.3607L22.378 37.8518V38.2398L22.1071 38.3885L21.5556 38.0612V39.1043L21.2257 39.3197L20.8977 39.1041ZM20.6566 35.3875L20.9668 35.8658H21.5448L21.8101 35.3875L21.5298 34.8789H20.9519L20.6566 35.3875Z" fill="#9FE8FF"/>
<path id="Vector_3" d="M31.4536 33.673V33.0397L31.1183 33.2386L30.9543 33.1353V32.9127L31.4536 32.6146V32.1983L31.0541 32.4431V32.0021L30.6547 32.2112V32.8094L30.4896 32.9322L30.3551 32.8213V32.4206L29.7985 32.7324L29.5562 32.6326V32.3801L30.1239 32.0635L29.7559 31.8816V31.6499L29.9679 31.5374L30.4886 31.8437L30.8493 31.6356L30.8411 31.6291L30.4751 31.4171L30.8314 31.1947L30.4742 30.9866L29.9537 31.2914L29.7559 31.1947V30.9643L30.1096 30.7668L29.5562 30.4619V30.2093L29.788 30.0981L30.3551 30.4173V30.0103L30.5034 29.8978L30.6974 30.0156L30.6918 30.6253L31.0586 30.8372L31.0619 30.4067L31.4536 30.6163V30.2002L30.9543 29.9018V29.6807L31.1183 29.5758L31.4536 29.7747V29.1428L31.6527 29.0106L31.853 29.1428V29.7747L32.2431 29.5719L32.4522 29.6937V29.8926L31.853 30.2002V30.6163L32.2524 30.3899V30.8427L32.6519 30.6345V29.9831L32.7972 29.8966L32.9515 29.983V30.3991L33.5348 30.0915L33.7503 30.2131V30.4487L33.2016 30.7653L33.5506 30.9604V31.1855L33.3679 31.2849L32.8359 30.9696L32.4685 31.2038L32.8229 31.4263L32.4576 31.6382L32.8342 31.8372L33.3724 31.539L33.5506 31.6604V31.8751L33.2191 32.0635L33.7503 32.3801V32.6287L33.4985 32.7323L32.9515 32.4339V32.8289L32.7997 32.9336L32.6519 32.8289V32.2295L32.2524 32.0085V32.4247L31.853 32.1982V32.6145L32.3523 32.9126V33.1482L32.1878 33.2385L31.853 33.0398V33.6731L31.6527 33.8039L31.4536 33.673ZM31.3072 31.4164L31.4955 31.7068H31.8464L32.0075 31.4164L31.8373 31.1077H31.4864L31.3072 31.4164Z" fill="#9FE8FF"/>
</g>
</g>
<defs>
<filter id="filter0_f_128_604" x="-7.54333" y="6.2368" width="57.8333" height="38.7232" filterUnits="userSpaceOnUse" color-interpolation-filters="sRGB">
<feFlood flood-opacity="0" result="BackgroundImageFix"/>
<feBlend mode="normal" in="SourceGraphic" in2="BackgroundImageFix" result="shape"/>
<feGaussianBlur stdDeviation="8.89332" result="effect1_foregroundBlur_128_604"/>
</filter>
<filter id="filter1_bi_128_604" x="-7.17" y="-5.54547" width="57.087" height="40.3909" filterUnits="userSpaceOnUse" color-interpolation-filters="sRGB">
<feFlood flood-opacity="0" result="BackgroundImageFix"/>
<feGaussianBlur in="BackgroundImageFix" stdDeviation="4"/>
<feComposite in2="SourceAlpha" operator="in" result="effect1_backgroundBlur_128_604"/>
<feBlend mode="normal" in="SourceGraphic" in2="effect1_backgroundBlur_128_604" result="shape"/>
<feColorMatrix in="SourceAlpha" type="matrix" values="0 0 0 0 0 0 0 0 0 0 0 0 0 0 0 0 0 0 127 0" result="hardAlpha"/>
<feOffset dy="4.79112"/>
<feGaussianBlur stdDeviation="2.17778"/>
<feComposite in2="hardAlpha" operator="arithmetic" k2="-1" k3="1"/>
<feColorMatrix type="matrix" values="0 0 0 0 1 0 0 0 0 1 0 0 0 0 1 0 0 0 1 0"/>
<feBlend mode="normal" in2="shape" result="effect2_innerShadow_128_604"/>
</filter>
<linearGradient id="paint0_linear_128_604" x1="0.829998" y1="26.8769" x2="46.8015" y2="2.45458" gradientUnits="userSpaceOnUse">
<stop stop-color="#E2FFFF"/>
<stop offset="1" stop-color="white"/>
</linearGradient>
<clipPath id="clip0_128_604">
<rect width="42" height="41.9999" fill="white" transform="translate(0.373276 -0.126465)"/>
</clipPath>
</defs>
</svg>
