<svg width="25" height="24" viewBox="0 0 25 24" fill="none" xmlns="http://www.w3.org/2000/svg">
<g id="ic_snowy" clip-path="url(#clip0_120_241)">
<g id="3">
<g id="2" filter="url(#filter0_f_120_241)">
<rect x="6.06761" y="13.7277" width="12.72" height="1.8" rx="0.899998" fill="#00BCFF"/>
</g>
<g id="clouds" filter="url(#filter1_bi_120_241)">
<path d="M21.4561 8.50652C21.5161 8.16603 21.5474 7.81576 21.5474 7.45825C21.5474 4.1138 18.8109 1.40259 15.4353 1.40259C12.9258 1.40259 10.7695 2.90099 9.82819 5.04402C9.06561 4.39172 8.07608 3.99787 6.99472 3.99787C4.58356 3.99787 2.62893 5.95597 2.62893 8.37141C2.62893 8.50591 2.63499 8.639 2.64686 8.7704C1.48713 9.33321 0.68858 10.5141 0.68858 11.8799C0.68858 13.791 2.25229 15.3402 4.18121 15.3402H20.6742C22.6031 15.3402 24.1668 13.791 24.1668 11.8799C24.1668 10.2351 23.0086 8.8583 21.4561 8.50652Z" fill="url(#paint0_linear_120_241)"/>
</g>
<path id="Vector" d="M6.25818 19.5618V19.1573L6.04408 19.2844L5.9393 19.2184V19.0763L6.25818 18.8858V18.62L6.00308 18.7763V18.4947L5.74797 18.6283V19.0103L5.64255 19.0887L5.55664 19.0179V18.762L5.20115 18.9611L5.04643 18.8974V18.7361L5.409 18.5339L5.17399 18.4177V18.2698L5.30938 18.1979L5.64191 18.3936L5.87227 18.2606L5.86704 18.2565L5.6333 18.1211L5.86086 17.979L5.63273 17.8462L5.30026 18.0408L5.17399 17.979V17.8319L5.39988 17.7057L5.04643 17.511V17.3497L5.19446 17.2787L5.55664 17.4826V17.2226L5.65135 17.1508L5.77527 17.226L5.7717 17.6154L6.00595 17.7507L6.00805 17.4758L6.25818 17.6096V17.3439L5.9393 17.1533V17.0121L6.04408 16.9451L6.25818 17.0722V16.6686L6.38535 16.5842L6.51329 16.6686V17.0722L6.7624 16.9427L6.89594 17.0204V17.1474L6.51329 17.3439V17.6096L6.76839 17.465V17.7542L7.0235 17.6213V17.2052L7.11629 17.15L7.21483 17.2052V17.4709L7.58741 17.2745L7.72504 17.3522V17.5026L7.37459 17.7048L7.59748 17.8294V17.9731L7.48077 18.0367L7.14104 17.8353L6.9064 17.9849L7.13275 18.127L6.89939 18.2623L7.13995 18.3893L7.48364 18.1989L7.59748 18.2765V18.4136L7.38575 18.5339L7.72504 18.7361V18.8949L7.56419 18.961L7.21483 18.7705V19.0227L7.11789 19.0896L7.0235 19.0227V18.6399L6.76839 18.4988V18.7646L6.51329 18.62V18.8858L6.83217 19.0762V19.2267L6.72713 19.2843L6.51329 19.1574V19.5619L6.38535 19.6454L6.25818 19.5618ZM6.16469 18.1207L6.28497 18.3061H6.50908L6.61195 18.1207L6.50327 17.9235H6.27916L6.16469 18.1207Z" fill="#9FE8FF"/>
<path id="Vector_2" d="M12.1559 22.3452V21.7491L11.8403 21.9364L11.6859 21.8392V21.6297L12.1559 21.349V20.9573L11.7799 21.1877V20.7726L11.404 20.9694V21.5324L11.2486 21.648L11.122 21.5436V21.1665L10.5981 21.4599L10.3701 21.3661V21.1284L10.9044 20.8304L10.5581 20.6592V20.4411L10.7576 20.3352L11.2477 20.6236L11.5871 20.4277L11.5794 20.4216L11.235 20.2221L11.5703 20.0127L11.2341 19.8169L10.7442 20.1037L10.5581 20.0127V19.7958L10.891 19.6099L10.3701 19.323V19.0853L10.5883 18.9806L11.122 19.2811V18.898L11.2616 18.7921L11.4442 18.903L11.4389 19.4767L11.7841 19.6762L11.7872 19.271L12.1559 19.4683V19.0767L11.6859 18.7958V18.5877L11.8403 18.4891L12.1559 18.6763V18.0815L12.3433 17.9571L12.5318 18.0815V18.6763L12.8989 18.4854L13.0957 18.6V18.7872L12.5318 19.0767V19.4683L12.9077 19.2552V19.6814L13.2837 19.4855V18.8723L13.4204 18.7909L13.5656 18.8722V19.2639L14.1147 18.9744L14.3175 19.0889V19.3106L13.8011 19.6085L14.1296 19.7922V20.004L13.9576 20.0976L13.4569 19.8008L13.1111 20.0213L13.4447 20.2307L13.1008 20.4301L13.4553 20.6174L13.9618 20.3367L14.1296 20.451V20.6531L13.8175 20.8304L14.3175 21.1284V21.3624L14.0805 21.4599L13.5656 21.179V21.5507L13.4228 21.6493L13.2837 21.5507V20.9866L12.9077 20.7786V21.1704L12.5318 20.9572V21.3489L13.0017 21.6296V21.8513L12.8469 21.9363L12.5318 21.7492V22.3453L12.3433 22.4684L12.1559 22.3452ZM12.0181 20.2214L12.1953 20.4947H12.5256L12.6772 20.2214L12.517 19.9308H12.1868L12.0181 20.2214Z" fill="#9FE8FF"/>
<path id="Vector_3" d="M18.1877 19.2417V18.8798L17.9962 18.9935L17.9024 18.9345V18.8073L18.1877 18.6369V18.3991L17.9595 18.5389V18.2869L17.7312 18.4064V18.7482L17.6369 18.8184L17.5601 18.755V18.5261L17.242 18.7042L17.1035 18.6472V18.5029L17.4279 18.322L17.2177 18.2181V18.0857L17.3388 18.0214L17.6363 18.1964L17.8425 18.0775L17.8378 18.0738L17.6286 17.9527L17.8322 17.8255L17.6281 17.7067L17.3307 17.8808L17.2177 17.8255V17.6939L17.4198 17.581L17.1035 17.4068V17.2625L17.236 17.1989L17.5601 17.3814V17.1488L17.6448 17.0845L17.7557 17.1518L17.7525 17.5002L17.9621 17.6213L17.9639 17.3753L18.1877 17.495V17.2572L17.9024 17.0867V16.9604L17.9962 16.9005L18.1877 17.0142V16.6531L18.3015 16.5775L18.416 16.6531V17.0142L18.6389 16.8983L18.7584 16.9678V17.0815L18.416 17.2572V17.495L18.6442 17.3657V17.6244L18.8725 17.5055V17.1332L18.9555 17.0838L19.0437 17.1331V17.3709L19.3771 17.1952L19.5002 17.2647V17.3993L19.1866 17.5802L19.3861 17.6917V17.8203L19.2816 17.8771L18.9777 17.6969L18.7677 17.8308L18.9702 17.9579L18.7615 18.079L18.9767 18.1927L19.2842 18.0223L19.3861 18.0917V18.2144L19.1966 18.322L19.5002 18.5029V18.645L19.3563 18.7042L19.0437 18.5337V18.7594L18.957 18.8192L18.8725 18.7594V18.4169L18.6442 18.2906V18.5284L18.416 18.399V18.6369L18.7013 18.8072V18.9419L18.6073 18.9934L18.416 18.8799V19.2418L18.3015 19.3165L18.1877 19.2417ZM18.1041 17.9523L18.2117 18.1182H18.4122L18.5043 17.9523L18.407 17.7758H18.2065L18.1041 17.9523Z" fill="#9FE8FF"/>
</g>
</g>
<defs>
<filter id="filter0_f_120_241" x="-11.719" y="-4.05898" width="48.2933" height="37.3733" filterUnits="userSpaceOnUse" color-interpolation-filters="sRGB">
<feFlood flood-opacity="0" result="BackgroundImageFix"/>
<feBlend mode="normal" in="SourceGraphic" in2="BackgroundImageFix" result="shape"/>
<feGaussianBlur stdDeviation="8.89332" result="effect1_foregroundBlur_120_241"/>
</filter>
<filter id="filter1_bi_120_241" x="-7.31142" y="-6.59741" width="39.4783" height="29.9376" filterUnits="userSpaceOnUse" color-interpolation-filters="sRGB">
<feFlood flood-opacity="0" result="BackgroundImageFix"/>
<feGaussianBlur in="BackgroundImageFix" stdDeviation="4"/>
<feComposite in2="SourceAlpha" operator="in" result="effect1_backgroundBlur_120_241"/>
<feBlend mode="normal" in="SourceGraphic" in2="effect1_backgroundBlur_120_241" result="shape"/>
<feColorMatrix in="SourceAlpha" type="matrix" values="0 0 0 0 0 0 0 0 0 0 0 0 0 0 0 0 0 0 127 0" result="hardAlpha"/>
<feOffset dy="4.79112"/>
<feGaussianBlur stdDeviation="2.17778"/>
<feComposite in2="hardAlpha" operator="arithmetic" k2="-1" k3="1"/>
<feColorMatrix type="matrix" values="0 0 0 0 1 0 0 0 0 1 0 0 0 0 1 0 0 0 1 0"/>
<feBlend mode="normal" in2="shape" result="effect2_innerShadow_120_241"/>
</filter>
<linearGradient id="paint0_linear_120_241" x1="0.688575" y1="15.3582" x2="26.958" y2="1.40262" gradientUnits="userSpaceOnUse">
<stop stop-color="#E2FFFF"/>
<stop offset="1" stop-color="white"/>
</linearGradient>
<clipPath id="clip0_120_241">
<rect width="24" height="23.9999" fill="white" transform="translate(0.427582 -0.0722656)"/>
</clipPath>
</defs>
</svg>
