<svg width="25" height="24" viewBox="0 0 25 24" fill="none" xmlns="http://www.w3.org/2000/svg">
<g id="ic_very_cloudy" clip-path="url(#clip0_120_231)">
<g id="1" filter="url(#filter0_f_120_231)">
<rect x="6.06769" y="13.2477" width="12.72" height="1.8" rx="0.899998" fill="#00BCFF"/>
</g>
<g id="clouds" filter="url(#filter1_i_120_231)">
<path d="M9.86557 6.62671C9.89132 6.47817 9.90475 6.32538 9.90475 6.16942C9.90475 4.71048 8.72988 3.52777 7.28062 3.52777C6.20321 3.52777 5.27746 4.18141 4.87332 5.11627C4.54592 4.83171 4.12108 4.65991 3.65682 4.65991C2.62163 4.65991 1.78244 5.51408 1.78244 6.56777C1.78244 6.62644 1.78504 6.6845 1.79014 6.74182C1.29223 6.98733 0.949386 7.50248 0.949386 8.09825C0.949386 8.93193 1.62074 9.60776 2.44889 9.60776H9.52987C10.358 9.60776 11.0294 8.93193 11.0294 8.09825C11.0294 7.38075 10.5321 6.78016 9.86557 6.62671Z" fill="url(#paint0_linear_120_231)"/>
</g>
<g id="clouds_2" filter="url(#filter2_bi_120_231)">
<path d="M21.7122 10.6887C21.7723 10.3838 21.8036 10.0702 21.8036 9.7501C21.8036 6.75542 19.0622 4.32776 15.6806 4.32776C13.1667 4.32776 11.0066 5.66945 10.0636 7.58836C9.29967 7.00427 8.30838 6.65162 7.2251 6.65162C4.80965 6.65162 2.85155 8.40493 2.85155 10.5678C2.85155 10.6882 2.85762 10.8074 2.86951 10.925C1.70772 11.429 0.907751 12.4864 0.907751 13.7093C0.907751 15.4205 2.47424 16.8077 4.40659 16.8077H20.9289C22.8612 16.8077 24.4277 15.4205 24.4277 13.7093C24.4277 12.2365 23.2674 11.0037 21.7122 10.6887Z" fill="url(#paint1_linear_120_231)"/>
</g>
<g id="clouds_3" filter="url(#filter3_bi_120_231)">
<path d="M21.9592 16.876C21.9891 16.704 22.0046 16.5271 22.0046 16.3465C22.0046 14.6572 20.6433 13.2877 18.964 13.2877C17.7155 13.2877 16.6429 14.0446 16.1746 15.127C15.7952 14.7975 15.3029 14.5986 14.765 14.5986C13.5655 14.5986 12.5931 15.5877 12.5931 16.8077C12.5931 16.8757 12.5961 16.9429 12.602 17.0092C12.025 17.2935 11.6278 17.89 11.6278 18.5799C11.6278 19.5452 12.4057 20.3277 13.3653 20.3277H21.5703C22.5299 20.3277 23.3078 19.5452 23.3078 18.5799C23.3078 17.7491 22.7316 17.0536 21.9592 16.876Z" fill="url(#paint2_linear_120_231)"/>
</g>
</g>
<defs>
<filter id="filter0_f_120_231" x="-11.719" y="-4.5389" width="48.2933" height="37.3733" filterUnits="userSpaceOnUse" color-interpolation-filters="sRGB">
<feFlood flood-opacity="0" result="BackgroundImageFix"/>
<feBlend mode="normal" in="SourceGraphic" in2="BackgroundImageFix" result="shape"/>
<feGaussianBlur stdDeviation="8.89332" result="effect1_foregroundBlur_120_231"/>
</filter>
<filter id="filter1_i_120_231" x="0.949387" y="3.52777" width="10.08" height="10.3246" filterUnits="userSpaceOnUse" color-interpolation-filters="sRGB">
<feFlood flood-opacity="0" result="BackgroundImageFix"/>
<feBlend mode="normal" in="SourceGraphic" in2="BackgroundImageFix" result="shape"/>
<feColorMatrix in="SourceAlpha" type="matrix" values="0 0 0 0 0 0 0 0 0 0 0 0 0 0 0 0 0 0 127 0" result="hardAlpha"/>
<feOffset dy="4.66902"/>
<feGaussianBlur stdDeviation="2.12228"/>
<feComposite in2="hardAlpha" operator="arithmetic" k2="-1" k3="1"/>
<feColorMatrix type="matrix" values="0 0 0 0 1 0 0 0 0 1 0 0 0 0 1 0 0 0 1 0"/>
<feBlend mode="normal" in2="shape" result="effect1_innerShadow_120_231"/>
</filter>
<filter id="filter2_bi_120_231" x="-7.09225" y="-3.67224" width="39.52" height="28.48" filterUnits="userSpaceOnUse" color-interpolation-filters="sRGB">
<feFlood flood-opacity="0" result="BackgroundImageFix"/>
<feGaussianBlur in="BackgroundImageFix" stdDeviation="4"/>
<feComposite in2="SourceAlpha" operator="in" result="effect1_backgroundBlur_120_231"/>
<feBlend mode="normal" in="SourceGraphic" in2="effect1_backgroundBlur_120_231" result="shape"/>
<feColorMatrix in="SourceAlpha" type="matrix" values="0 0 0 0 0 0 0 0 0 0 0 0 0 0 0 0 0 0 127 0" result="hardAlpha"/>
<feOffset dy="4.66902"/>
<feGaussianBlur stdDeviation="2.12228"/>
<feComposite in2="hardAlpha" operator="arithmetic" k2="-1" k3="1"/>
<feColorMatrix type="matrix" values="0 0 0 0 1 0 0 0 0 1 0 0 0 0 1 0 0 0 1 0"/>
<feBlend mode="normal" in2="shape" result="effect2_innerShadow_120_231"/>
</filter>
<filter id="filter3_bi_120_231" x="3.62778" y="5.28772" width="27.68" height="23.04" filterUnits="userSpaceOnUse" color-interpolation-filters="sRGB">
<feFlood flood-opacity="0" result="BackgroundImageFix"/>
<feGaussianBlur in="BackgroundImageFix" stdDeviation="4"/>
<feComposite in2="SourceAlpha" operator="in" result="effect1_backgroundBlur_120_231"/>
<feBlend mode="normal" in="SourceGraphic" in2="effect1_backgroundBlur_120_231" result="shape"/>
<feColorMatrix in="SourceAlpha" type="matrix" values="0 0 0 0 0 0 0 0 0 0 0 0 0 0 0 0 0 0 127 0" result="hardAlpha"/>
<feOffset dy="4.66902"/>
<feGaussianBlur stdDeviation="2.12228"/>
<feComposite in2="hardAlpha" operator="arithmetic" k2="-1" k3="1"/>
<feColorMatrix type="matrix" values="0 0 0 0 1 0 0 0 0 1 0 0 0 0 1 0 0 0 1 0"/>
<feBlend mode="normal" in2="shape" result="effect2_innerShadow_120_231"/>
</filter>
<linearGradient id="paint0_linear_120_231" x1="0.949384" y1="9.61561" x2="12.3061" y2="3.67773" gradientUnits="userSpaceOnUse">
<stop stop-color="#E2FFFF"/>
<stop offset="1" stop-color="white"/>
</linearGradient>
<linearGradient id="paint1_linear_120_231" x1="0.907745" y1="16.8239" x2="25.8426" y2="2.00377" gradientUnits="userSpaceOnUse">
<stop stop-color="#E2FFFF"/>
<stop offset="1" stop-color="white"/>
</linearGradient>
<linearGradient id="paint2_linear_120_231" x1="11.6278" y1="20.3368" x2="24.7831" y2="13.4536" gradientUnits="userSpaceOnUse">
<stop stop-color="#E2FFFF"/>
<stop offset="1" stop-color="white"/>
</linearGradient>
<clipPath id="clip0_120_231">
<rect width="24" height="23.9999" fill="white" transform="translate(0.427643 -0.0722656)"/>
</clipPath>
</defs>
</svg>
