<?xml version="1.0" standalone="no"?>
<!DOCTYPE svg PUBLIC "-//W3C//DTD SVG 20010904//EN"
 "http://www.w3.org/TR/2001/REC-SVG-20010904/DTD/svg10.dtd">
<svg version="1.0" xmlns="http://www.w3.org/2000/svg"
 width="48.000000pt" height="48.000000pt" viewBox="0 0 48.000000 48.000000"
 preserveAspectRatio="xMidYMid meet">

<g transform="translate(0.000000,48.000000) scale(0.100000,-0.100000)"
fill="#000000" stroke="none">
<path d="M190 402 c0 -39 -32 -58 -71 -41 -16 6 -31 10 -33 8 -1 -2 -13 -21
-25 -41 l-22 -37 26 -17 c34 -22 34 -66 0 -88 l-26 -17 22 -39 c24 -43 30 -46
59 -30 31 16 70 -7 70 -42 0 -27 2 -28 50 -28 48 0 50 1 50 28 0 39 32 58 71
41 16 -6 31 -10 33 -8 1 2 12 20 25 41 l21 36 -25 20 c-32 25 -32 59 0 84 l25
20 -22 39 c-23 42 -29 45 -58 29 -31 -16 -70 7 -70 42 0 27 -2 28 -50 28 -48
0 -50 -1 -50 -28z m88 -134 c15 -15 15 -61 0 -76 -15 -15 -61 -15 -76 0 -15
15 -15 61 0 76 15 15 61 15 76 0z"/>
</g>
</svg>
