<svg width="24" height="24" viewBox="0 0 24 24" fill="none" xmlns="http://www.w3.org/2000/svg">
<g id="Phosphor Icons Regular / SunHorizon">
<path id="Vector (Stroke)" fill-rule="evenodd" clip-rule="evenodd" d="M7.68994 3.10447C8.07235 2.9453 8.51138 3.12628 8.67055 3.50869L9.39242 5.24307C9.55159 5.62548 9.37061 6.06451 8.9882 6.22368C8.60579 6.38285 8.16675 6.20187 8.00759 5.81946L7.28571 4.08508C7.12655 3.70267 7.30752 3.26364 7.68994 3.10447Z" fill="white"/>
<path id="Vector (Stroke)_2" fill-rule="evenodd" clip-rule="evenodd" d="M1.60447 9.18991C1.76364 8.80749 2.20267 8.62652 2.58508 8.78568L4.31946 9.50756C4.70187 9.66672 4.88285 10.1058 4.72368 10.4882C4.56451 10.8706 4.12548 11.0516 3.74307 10.8924L2.00869 10.1705C1.62628 10.0114 1.4453 9.57232 1.60447 9.18991Z" fill="white"/>
<path id="Vector (Stroke)_3" fill-rule="evenodd" clip-rule="evenodd" d="M22.3956 9.18991C22.5547 9.57232 22.3737 10.0114 21.9913 10.1705L20.257 10.8924C19.8745 11.0516 19.4355 10.8706 19.2763 10.4882C19.1172 10.1058 19.2982 9.66672 19.6806 9.50756L21.4149 8.78568C21.7974 8.62652 22.2364 8.80749 22.3956 9.18991Z" fill="white"/>
<path id="Vector (Stroke)_4" fill-rule="evenodd" clip-rule="evenodd" d="M16.3101 3.10447C16.6925 3.26364 16.8735 3.70267 16.7143 4.08508L15.9924 5.81946C15.8333 6.20187 15.3942 6.38285 15.0118 6.22368C14.6294 6.06452 14.4484 5.62548 14.6076 5.24307L15.3295 3.50869C15.4886 3.12628 15.9277 2.9453 16.3101 3.10447Z" fill="white"/>
<path id="Vector (Stroke)_5" fill-rule="evenodd" clip-rule="evenodd" d="M0.75 15C0.75 14.5858 1.08579 14.25 1.5 14.25H22.5C22.9142 14.25 23.25 14.5858 23.25 15C23.25 15.4142 22.9142 15.75 22.5 15.75H1.5C1.08579 15.75 0.75 15.4142 0.75 15Z" fill="white"/>
<path id="Vector (Stroke)_6" fill-rule="evenodd" clip-rule="evenodd" d="M3.75 18.75C3.75 18.3358 4.08579 18 4.5 18H19.5C19.9142 18 20.25 18.3358 20.25 18.75C20.25 19.1642 19.9142 19.5 19.5 19.5H4.5C4.08579 19.5 3.75 19.1642 3.75 18.75Z" fill="white"/>
<path id="Vector (Stroke)_7" fill-rule="evenodd" clip-rule="evenodd" d="M12 8.61578C11.2482 8.61578 10.5066 8.78967 9.8331 9.12385C9.15964 9.45802 8.57259 9.94343 8.11785 10.5421C7.66312 11.1408 7.35301 11.8366 7.21179 12.575C7.07056 13.3134 7.10203 14.0745 7.30375 14.7988C7.41489 15.1978 7.18151 15.6114 6.78248 15.7225C6.38345 15.8337 5.96989 15.6003 5.85875 15.2012C5.59497 14.2542 5.55381 13.2589 5.73849 12.2932C5.92317 11.3276 6.32869 10.4178 6.92335 9.63485C7.518 8.85194 8.28568 8.21717 9.16636 7.78017C10.047 7.34317 11.0169 7.11578 12 7.11578C12.9831 7.11578 13.953 7.34317 14.8336 7.78017C15.7143 8.21717 16.482 8.85194 17.0767 9.63485C17.6713 10.4178 18.0768 11.3276 18.2615 12.2932C18.4462 13.2589 18.405 14.2542 18.1413 15.2012C18.0301 15.6003 17.6165 15.8337 17.2175 15.7225C16.8185 15.6114 16.5851 15.1978 16.6963 14.7988C16.898 14.0745 16.9294 13.3134 16.7882 12.575C16.647 11.8366 16.3369 11.1408 15.8821 10.5421C15.4274 9.94343 14.8404 9.45802 14.1669 9.12385C13.4934 8.78967 12.7518 8.61578 12 8.61578Z" fill="white"/>
</g>
</svg>
