<svg width="25" height="24" viewBox="0 0 25 24" fill="none" xmlns="http://www.w3.org/2000/svg">
<g id="Atom/Weather Icons" clip-path="url(#clip0_120_221)">
<g id="clouds" filter="url(#filter0_i_120_221)">
<path d="M23.1884 6.66005C23.2174 6.49589 23.2325 6.32701 23.2325 6.15464C23.2325 4.54212 21.9085 3.23492 20.2752 3.23492C19.061 3.23492 18.0177 3.95737 17.5622 4.99063C17.1932 4.67612 16.7144 4.48623 16.1912 4.48623C15.0246 4.48623 14.0788 5.43032 14.0788 6.59491C14.0788 6.65976 14.0818 6.72393 14.0875 6.78728C13.5264 7.05864 13.14 7.62802 13.14 8.28649C13.14 9.20793 13.8966 9.9549 14.8299 9.9549H22.8101C23.7434 9.9549 24.5 9.20793 24.5 8.28649C24.5 7.49346 23.9396 6.82967 23.1884 6.66005Z" fill="url(#paint0_linear_120_221)"/>
</g>
<g id="Rectangle 10" opacity="0.3" filter="url(#filter1_f_120_221)">
<rect x="3.63043" y="2.6087" width="17.7391" height="17.7391" rx="8.86957" fill="#EDD34A"/>
</g>
<g id="Ellipse 13" filter="url(#filter2_i_120_221)">
<path d="M19.7531 10.3843C19.7531 14.9265 16.0706 18.6086 11.5279 18.6086C6.98524 18.6086 3.30268 14.9265 3.30268 10.3843C3.30268 5.84217 6.98524 2.16003 11.5279 2.16003C16.0706 2.16003 19.7531 5.84217 19.7531 10.3843Z" fill="url(#paint1_linear_120_221)"/>
</g>
<g id="clouds_2" filter="url(#filter3_bi_120_221)">
<path d="M10.5484 18.5C10.5775 18.3359 10.5926 18.167 10.5926 17.9946C10.5926 16.3821 9.26854 15.0749 7.63524 15.0749C6.42102 15.0749 5.37771 15.7973 4.92225 16.8306C4.55328 16.5161 4.07449 16.3262 3.55128 16.3262C2.38463 16.3262 1.43888 17.2703 1.43888 18.4349C1.43888 18.4997 1.44181 18.5639 1.44755 18.6273C0.886419 18.8986 0.500039 19.468 0.500039 20.1265C0.500039 21.0479 1.25664 21.7949 2.18995 21.7949H10.1701C11.1034 21.7949 11.86 21.0479 11.86 20.1265C11.86 19.3334 11.2996 18.6696 10.5484 18.5Z" fill="url(#paint2_linear_120_221)"/>
</g>
</g>
<defs>
<filter id="filter0_i_120_221" x="13.14" y="3.23492" width="11.36" height="8.80685" filterUnits="userSpaceOnUse" color-interpolation-filters="sRGB">
<feFlood flood-opacity="0" result="BackgroundImageFix"/>
<feBlend mode="normal" in="SourceGraphic" in2="BackgroundImageFix" result="shape"/>
<feColorMatrix in="SourceAlpha" type="matrix" values="0 0 0 0 0 0 0 0 0 0 0 0 0 0 0 0 0 0 127 0" result="hardAlpha"/>
<feOffset dy="2.29556"/>
<feGaussianBlur stdDeviation="1.04344"/>
<feComposite in2="hardAlpha" operator="arithmetic" k2="-1" k3="1"/>
<feColorMatrix type="matrix" values="0 0 0 0 1 0 0 0 0 1 0 0 0 0 1 0 0 0 1 0"/>
<feBlend mode="normal" in2="shape" result="effect1_innerShadow_120_221"/>
</filter>
<filter id="filter1_f_120_221" x="-0.543481" y="-1.56521" width="26.087" height="26.087" filterUnits="userSpaceOnUse" color-interpolation-filters="sRGB">
<feFlood flood-opacity="0" result="BackgroundImageFix"/>
<feBlend mode="normal" in="SourceGraphic" in2="BackgroundImageFix" result="shape"/>
<feGaussianBlur stdDeviation="2.08696" result="effect1_foregroundBlur_120_221"/>
</filter>
<filter id="filter2_i_120_221" x="3.30268" y="2.16003" width="16.4504" height="17.492" filterUnits="userSpaceOnUse" color-interpolation-filters="sRGB">
<feFlood flood-opacity="0" result="BackgroundImageFix"/>
<feBlend mode="normal" in="SourceGraphic" in2="BackgroundImageFix" result="shape"/>
<feColorMatrix in="SourceAlpha" type="matrix" values="0 0 0 0 0 0 0 0 0 0 0 0 0 0 0 0 0 0 127 0" result="hardAlpha"/>
<feOffset dy="1.04344"/>
<feGaussianBlur stdDeviation="1.87819"/>
<feComposite in2="hardAlpha" operator="arithmetic" k2="-1" k3="1"/>
<feColorMatrix type="matrix" values="0 0 0 0 1 0 0 0 0 1 0 0 0 0 1 0 0 0 0.81 0"/>
<feBlend mode="normal" in2="shape" result="effect1_innerShadow_120_221"/>
</filter>
<filter id="filter3_bi_120_221" x="-3.67387" y="10.901" width="19.7078" height="15.0678" filterUnits="userSpaceOnUse" color-interpolation-filters="sRGB">
<feFlood flood-opacity="0" result="BackgroundImageFix"/>
<feGaussianBlur in="BackgroundImageFix" stdDeviation="2.08696"/>
<feComposite in2="SourceAlpha" operator="in" result="effect1_backgroundBlur_120_221"/>
<feBlend mode="normal" in="SourceGraphic" in2="effect1_backgroundBlur_120_221" result="shape"/>
<feColorMatrix in="SourceAlpha" type="matrix" values="0 0 0 0 0 0 0 0 0 0 0 0 0 0 0 0 0 0 127 0" result="hardAlpha"/>
<feOffset dy="2.29556"/>
<feGaussianBlur stdDeviation="1.04344"/>
<feComposite in2="hardAlpha" operator="arithmetic" k2="-1" k3="1"/>
<feColorMatrix type="matrix" values="0 0 0 0 1 0 0 0 0 1 0 0 0 0 1 0 0 0 1 0"/>
<feBlend mode="normal" in2="shape" result="effect2_innerShadow_120_221"/>
</filter>
<linearGradient id="paint0_linear_120_221" x1="13.8625" y1="9.3549" x2="25.2938" y2="0.776226" gradientUnits="userSpaceOnUse">
<stop stop-color="white"/>
<stop offset="1" stop-color="white" stop-opacity="0.58"/>
</linearGradient>
<linearGradient id="paint1_linear_120_221" x1="10.2785" y1="14.8608" x2="17.0449" y2="2.99221" gradientUnits="userSpaceOnUse">
<stop stop-color="#FF9900"/>
<stop offset="1" stop-color="#FFEE94"/>
</linearGradient>
<linearGradient id="paint2_linear_120_221" x1="1.22258" y1="21.1949" x2="12.6539" y2="12.6162" gradientUnits="userSpaceOnUse">
<stop stop-color="white"/>
<stop offset="1" stop-color="white" stop-opacity="0.58"/>
</linearGradient>
<clipPath id="clip0_120_221">
<rect width="24" height="23.9999" fill="white" transform="translate(0.5)"/>
</clipPath>
</defs>
</svg>
