<svg width="21" height="20" viewBox="0 0 21 20" fill="none" xmlns="http://www.w3.org/2000/svg">
<g id="Phosphor Icons Regular / Wind">
<path id="Vector (Stroke)" fill-rule="evenodd" clip-rule="evenodd" d="M12.3748 11.875C12.8317 11.8747 13.2799 11.9996 13.6709 12.2362C14.0618 12.4728 14.3805 12.812 14.5922 13.2171C14.8038 13.6221 14.9004 14.0774 14.8715 14.5335C14.8425 14.9896 14.6891 15.429 14.4278 15.804C14.1666 16.179 13.8076 16.4752 13.3898 16.6604C12.9721 16.8457 12.5115 16.9128 12.0582 16.8547C11.6049 16.7965 11.1763 16.6152 10.8188 16.3304C10.4614 16.0457 10.1888 15.6684 10.0308 15.2396C9.91138 14.9157 10.0772 14.5564 10.401 14.437C10.7249 14.3176 11.0842 14.4834 11.2036 14.8073C11.2826 15.0217 11.4189 15.2103 11.5977 15.3527C11.7764 15.4951 11.9907 15.5857 12.2174 15.6148C12.444 15.6439 12.6743 15.6103 12.8832 15.5177C13.0921 15.4251 13.2716 15.277 13.4022 15.0895C13.5328 14.902 13.6095 14.6823 13.624 14.4542C13.6385 14.2262 13.5902 13.9985 13.4843 13.796C13.3785 13.5935 13.2192 13.4239 13.0237 13.3056C12.8282 13.1873 12.604 13.1248 12.3755 13.125L3.625 13.125C3.27982 13.125 3 12.8452 3 12.5C3 12.1548 3.27982 11.875 3.625 11.875H12.3748Z" fill="white"/>
<path id="Vector (Stroke)_2" fill-rule="evenodd" clip-rule="evenodd" d="M10.3832 4.48229C10.1743 4.38967 9.944 4.35608 9.71736 4.38517C9.49071 4.41426 9.27638 4.50492 9.09766 4.64729C8.91893 4.78967 8.78265 4.97831 8.70362 5.19271C8.58425 5.51659 8.22492 5.68237 7.90104 5.563C7.57716 5.44362 7.41138 5.0843 7.53075 4.76042C7.6888 4.33161 7.96136 3.95433 8.31882 3.66959C8.67627 3.38484 9.10494 3.20352 9.55822 3.14534C10.0115 3.08716 10.4721 3.15435 10.8898 3.33959C11.3076 3.52483 11.6666 3.82105 11.9278 4.19604C12.1891 4.57103 12.3425 5.01045 12.3715 5.46653C12.4004 5.92262 12.3038 6.37792 12.0922 6.78295C11.8805 7.18797 11.5618 7.52723 11.1709 7.76384C10.78 8.00037 10.3318 8.12527 9.875 8.125H2.375C2.02982 8.125 1.75 7.84518 1.75 7.5C1.75 7.15482 2.02982 6.875 2.375 6.875H9.875C10.1035 6.87518 10.3282 6.81273 10.5237 6.69442C10.7192 6.57612 10.8785 6.40649 10.9843 6.20397C11.0902 6.00146 11.1385 5.77381 11.124 5.54577C11.1095 5.31773 11.0328 5.09802 10.9022 4.91052C10.7716 4.72302 10.5921 4.57492 10.3832 4.48229Z" fill="white"/>
<path id="Vector (Stroke)_3" fill-rule="evenodd" clip-rule="evenodd" d="M17.2582 6.98229C17.0493 6.88967 16.819 6.85608 16.5924 6.88517C16.3657 6.91426 16.1514 7.00492 15.9727 7.14729C15.7939 7.28967 15.6576 7.47831 15.5786 7.69271C15.4592 8.01659 15.0999 8.18237 14.776 8.063C14.4522 7.94362 14.2864 7.5843 14.4058 7.26042C14.5638 6.83161 14.8364 6.45433 15.1938 6.16959C15.5513 5.88484 15.9799 5.70352 16.4332 5.64534C16.8865 5.58716 17.3471 5.65435 17.7648 5.83959C18.1826 6.02483 18.5416 6.32105 18.8029 6.69604C19.0641 7.07103 19.2175 7.51045 19.2465 7.96653C19.2754 8.42262 19.1788 8.87792 18.9672 9.28295C18.7555 9.68797 18.4368 10.0272 18.0459 10.2638C17.655 10.5004 17.2068 10.6253 16.7499 10.625C16.7498 10.625 16.7501 10.625 16.7499 10.625H3C2.65482 10.625 2.375 10.3452 2.375 10C2.375 9.65482 2.65482 9.375 3 9.375H16.75C16.9785 9.37518 17.2032 9.31273 17.3987 9.19442C17.5942 9.07612 17.7535 8.90649 17.8593 8.70397C17.9652 8.50146 18.0135 8.27381 17.999 8.04577C17.9845 7.81772 17.9078 7.59801 17.7772 7.41052C17.6466 7.22302 17.4671 7.07492 17.2582 6.98229Z" fill="white"/>
</g>
</svg>
